<?xml version="1.0" encoding="us-ascii" standalone="no"?><svg xmlns="http://www.w3.org/2000/svg" xmlns:xlink="http://www.w3.org/1999/xlink" contentStyleType="text/css" height="3932.0313px" preserveAspectRatio="none" style="width:1605px;height:3932px;background:#FFFFFF;" version="1.1" viewBox="0 0 1605 3932" width="1605.9896px" zoomAndPan="magnify"><defs/><g><rect fill="none" height="469.0877" style="stroke:#000000;stroke-width:2.734375;" width="1087.3698" x="156.7708" y="428.7984"/><line style="stroke:#181818;stroke-width:0.9114583333333334;stroke-dasharray:5.0,5.0;" x1="226.0417" x2="226.0417" y1="66.1662" y2="3146.3542"/><line style="stroke:#A80036;stroke-width:1.8229166666666667;stroke-dasharray:1.0,4.0;" x1="226.0417" x2="226.0417" y1="3146.3542" y2="3220.7377"/><line style="stroke:#181818;stroke-width:0.9114583333333334;stroke-dasharray:5.0,5.0;" x1="226.0417" x2="226.0417" y1="3220.7377" y2="3868.3004"/><line style="stroke:#181818;stroke-width:0.9114583333333334;stroke-dasharray:5.0,5.0;" x1="634.375" x2="634.375" y1="66.1662" y2="3146.3542"/><line style="stroke:#A80036;stroke-width:1.8229166666666667;stroke-dasharray:1.0,4.0;" x1="634.375" x2="634.375" y1="3146.3542" y2="3220.7377"/><line style="stroke:#181818;stroke-width:0.9114583333333334;stroke-dasharray:5.0,5.0;" x1="634.375" x2="634.375" y1="3220.7377" y2="3868.3004"/><line style="stroke:#181818;stroke-width:0.9114583333333334;stroke-dasharray:5.0,5.0;" x1="977.9948" x2="977.9948" y1="66.1662" y2="3146.3542"/><line style="stroke:#A80036;stroke-width:1.8229166666666667;stroke-dasharray:1.0,4.0;" x1="977.9948" x2="977.9948" y1="3146.3542" y2="3220.7377"/><line style="stroke:#181818;stroke-width:0.9114583333333334;stroke-dasharray:5.0,5.0;" x1="977.9948" x2="977.9948" y1="3220.7377" y2="3868.3004"/><line style="stroke:#181818;stroke-width:0.9114583333333334;stroke-dasharray:5.0,5.0;" x1="1292.4479" x2="1292.4479" y1="66.1662" y2="3146.3542"/><line style="stroke:#A80036;stroke-width:1.8229166666666667;stroke-dasharray:1.0,4.0;" x1="1292.4479" x2="1292.4479" y1="3146.3542" y2="3220.7377"/><line style="stroke:#181818;stroke-width:0.9114583333333334;stroke-dasharray:5.0,5.0;" x1="1292.4479" x2="1292.4479" y1="3220.7377" y2="3868.3004"/><line style="stroke:#181818;stroke-width:0.9114583333333334;stroke-dasharray:5.0,5.0;" x1="1476.5625" x2="1476.5625" y1="66.1662" y2="3146.3542"/><line style="stroke:#A80036;stroke-width:1.8229166666666667;stroke-dasharray:1.0,4.0;" x1="1476.5625" x2="1476.5625" y1="3146.3542" y2="3220.7377"/><line style="stroke:#181818;stroke-width:0.9114583333333334;stroke-dasharray:5.0,5.0;" x1="1476.5625" x2="1476.5625" y1="3220.7377" y2="3868.3004"/><rect fill="#E2E2F0" height="55.2287" rx="4.5573" ry="4.5573" style="stroke:#181818;stroke-width:0.9114583333333334;" width="103.9063" x="175" y="9.1146"/><text fill="#000000" font-family="sans-serif" font-size="25.5208" lengthAdjust="spacing" textLength="78.3854" x="187.7604" y="45.564">Admin</text><rect fill="#E2E2F0" height="55.2287" rx="4.5573" ry="4.5573" style="stroke:#181818;stroke-width:0.9114583333333334;" width="103.9063" x="175" y="3866.4775"/><text fill="#000000" font-family="sans-serif" font-size="25.5208" lengthAdjust="spacing" textLength="78.3854" x="187.7604" y="3902.9269">Admin</text><rect fill="#E2E2F0" height="55.2287" rx="4.5573" ry="4.5573" style="stroke:#181818;stroke-width:0.9114583333333334;" width="96.6146" x="586.9792" y="9.1146"/><text fill="#000000" font-family="sans-serif" font-size="25.5208" lengthAdjust="spacing" textLength="71.0938" x="599.7396" y="45.564">Client</text><rect fill="#E2E2F0" height="55.2287" rx="4.5573" ry="4.5573" style="stroke:#181818;stroke-width:0.9114583333333334;" width="96.6146" x="586.9792" y="3866.4775"/><text fill="#000000" font-family="sans-serif" font-size="25.5208" lengthAdjust="spacing" textLength="71.0938" x="599.7396" y="3902.9269">Client</text><rect fill="#E2E2F0" height="55.2287" rx="4.5573" ry="4.5573" style="stroke:#181818;stroke-width:0.9114583333333334;" width="105.7292" x="925.1302" y="9.1146"/><text fill="#000000" font-family="sans-serif" font-size="25.5208" lengthAdjust="spacing" textLength="80.2083" x="937.8906" y="45.564">Server</text><rect fill="#E2E2F0" height="55.2287" rx="4.5573" ry="4.5573" style="stroke:#181818;stroke-width:0.9114583333333334;" width="105.7292" x="925.1302" y="3866.4775"/><text fill="#000000" font-family="sans-serif" font-size="25.5208" lengthAdjust="spacing" textLength="80.2083" x="937.8906" y="3902.9269">Server</text><rect fill="#E2E2F0" height="55.2287" rx="4.5573" ry="4.5573" style="stroke:#181818;stroke-width:0.9114583333333334;" width="78.3854" x="1254.1667" y="9.1146"/><text fill="#000000" font-family="sans-serif" font-size="25.5208" lengthAdjust="spacing" textLength="52.8646" x="1266.9271" y="45.564">IPFS</text><rect fill="#E2E2F0" height="55.2287" rx="4.5573" ry="4.5573" style="stroke:#181818;stroke-width:0.9114583333333334;" width="78.3854" x="1254.1667" y="3866.4775"/><text fill="#000000" font-family="sans-serif" font-size="25.5208" lengthAdjust="spacing" textLength="52.8646" x="1266.9271" y="3902.9269">IPFS</text><rect fill="#E2E2F0" height="55.2287" rx="4.5573" ry="4.5573" style="stroke:#181818;stroke-width:0.9114583333333334;" width="213.2813" x="1370.8333" y="9.1146"/><text fill="#000000" font-family="sans-serif" font-size="25.5208" lengthAdjust="spacing" textLength="187.7604" x="1383.5938" y="45.564">Smart Contract</text><rect fill="#E2E2F0" height="55.2287" rx="4.5573" ry="4.5573" style="stroke:#181818;stroke-width:0.9114583333333334;" width="213.2813" x="1370.8333" y="3866.4775"/><text fill="#000000" font-family="sans-serif" font-size="25.5208" lengthAdjust="spacing" textLength="187.7604" x="1383.5938" y="3902.9269">Smart Contract</text><rect fill="#EEEEEE" height="5.4688" style="stroke:#EEEEEE;stroke-width:1.8229166666666667;" width="1593.2292" x="0" y="121.8862"/><line style="stroke:#000000;stroke-width:1.8229166666666667;" x1="0" x2="1593.2292" y1="121.8862" y2="121.8862"/><line style="stroke:#000000;stroke-width:1.8229166666666667;" x1="0" x2="1593.2292" y1="127.3549" y2="127.3549"/><rect fill="#EEEEEE" height="42.1692" style="stroke:#000000;stroke-width:3.6458333333333335;" width="324.4792" x="634.375" y="102.6245"/><text fill="#000000" font-family="sans-serif" font-size="23.6979" font-weight="bold" lengthAdjust="spacing" textLength="289.8438" x="645.3125" y="131.9131">Setup software steps</text><path d="M9.1146,172.1375 L9.1146,299.7416 L853.125,299.7416 L853.125,190.3666 L834.8958,172.1375 L9.1146,172.1375 " fill="#FEFFDD" style="stroke:#181818;stroke-width:0.9114583333333334;"/><path d="M834.8958,172.1375 L834.8958,190.3666 L853.125,190.3666 L834.8958,172.1375 " fill="#FEFFDD" style="stroke:#181818;stroke-width:0.9114583333333334;"/><text fill="#000000" font-family="sans-serif" font-size="23.6979" lengthAdjust="spacing" textLength="763.8021" x="20.0521" y="203.249">When admin installs software on client and server it sets by config</text><text fill="#000000" font-family="sans-serif" font-size="23.6979" lengthAdjust="spacing" textLength="632.5521" x="20.0521" y="230.8348">its own public key. Also it sets smart contract address.</text><text fill="#000000" font-family="sans-serif" font-size="23.6979" lengthAdjust="spacing" textLength="7.2917" x="20.0521" y="258.4207">&#160;</text><text fill="#000000" font-family="sans-serif" font-size="23.6979" lengthAdjust="spacing" textLength="805.7292" x="20.0521" y="286.0065">So software can trust particular smart contract and admin public key.</text><polygon fill="#181818" points="613.4115,341.0563,631.6406,348.348,613.4115,355.6396,620.7031,348.348" style="stroke:#181818;stroke-width:1.8229166666666667;"/><line style="stroke:#181818;stroke-width:1.8229166666666667;" x1="226.9531" x2="624.349" y1="348.348" y2="348.348"/><text fill="#000000" font-family="sans-serif" font-size="23.6979" font-weight="bold" lengthAdjust="spacing" textLength="16.4063" x="239.7135" y="339.1132">1</text><text fill="#000000" font-family="sans-serif" font-size="23.6979" lengthAdjust="spacing" textLength="233.3333" x="263.4115" y="339.1132">Install DPKI software</text><polygon fill="#181818" points="956.1198,394.163,974.349,401.4547,956.1198,408.7463,963.4115,401.4547" style="stroke:#181818;stroke-width:1.8229166666666667;"/><line style="stroke:#181818;stroke-width:1.8229166666666667;" x1="226.9531" x2="967.0573" y1="401.4547" y2="401.4547"/><text fill="#000000" font-family="sans-serif" font-size="23.6979" font-weight="bold" lengthAdjust="spacing" textLength="16.4063" x="239.7135" y="392.2199">2</text><text fill="#000000" font-family="sans-serif" font-size="23.6979" lengthAdjust="spacing" textLength="233.3333" x="263.4115" y="392.2199">Install DPKI software</text><path d="M156.7708,428.7984 L284.375,428.7984 L284.375,441.8009 L266.1458,460.0301 L156.7708,460.0301 L156.7708,428.7984 " fill="#EEEEEE" style="stroke:#000000;stroke-width:2.734375;"/><rect fill="none" height="469.0877" style="stroke:#000000;stroke-width:2.734375;" width="1087.3698" x="156.7708" y="428.7984"/><text fill="#000000" font-family="sans-serif" font-size="23.6979" font-weight="bold" lengthAdjust="spacing" textLength="45.5729" x="184.1146" y="452.6183">par</text><path d="M404.6875,469.1447 L404.6875,624.0926 L1208.5938,624.0926 L1208.5938,487.3739 L1190.3646,469.1447 L404.6875,469.1447 " fill="#FEFFDD" style="stroke:#181818;stroke-width:0.9114583333333334;"/><path d="M1190.3646,469.1447 L1190.3646,487.3739 L1208.5938,487.3739 L1190.3646,469.1447 " fill="#FEFFDD" style="stroke:#181818;stroke-width:0.9114583333333334;"/><text fill="#000000" font-family="sans-serif" font-size="23.6979" lengthAdjust="spacing" textLength="550.5208" x="415.625" y="500.2562">This generated key pair is not related with SSH.</text><text fill="#000000" font-family="sans-serif" font-size="23.6979" lengthAdjust="spacing" textLength="765.625" x="415.625" y="527.8421">We need it to work with smart contract and to interact with admin.</text><text fill="#000000" font-family="sans-serif" font-size="23.6979" lengthAdjust="spacing" textLength="632.5521" x="415.625" y="555.4279">That's key pair is more sensentive than SSH key pairs.</text><text fill="#000000" font-family="sans-serif" font-size="23.6979" lengthAdjust="spacing" textLength="716.4063" x="415.625" y="583.0138">That's why generation should be processed automatically and</text><text fill="#000000" font-family="sans-serif" font-size="23.6979" lengthAdjust="spacing" textLength="315.3646" x="415.625" y="610.5996">should  never leave device.</text><line style="stroke:#181818;stroke-width:1.8229166666666667;" x1="635.2865" x2="711.849" y1="672.9411" y2="672.9411"/><line style="stroke:#181818;stroke-width:1.8229166666666667;" x1="711.849" x2="711.849" y1="672.9411" y2="696.639"/><line style="stroke:#181818;stroke-width:1.8229166666666667;" x1="637.1094" x2="711.849" y1="696.639" y2="696.639"/><polygon fill="#181818" points="655.3385,689.3473,637.1094,696.639,655.3385,703.9307,648.0469,696.639" style="stroke:#181818;stroke-width:1.8229166666666667;"/><text fill="#000000" font-family="sans-serif" font-size="23.6979" font-weight="bold" lengthAdjust="spacing" textLength="16.4063" x="648.0469" y="663.7063">3</text><text fill="#000000" font-family="sans-serif" font-size="23.6979" lengthAdjust="spacing" textLength="207.8125" x="671.7448" y="663.7063">Generate key pair</text><polygon fill="#181818" points="247.0052,742.454,228.776,749.7457,247.0052,757.0374,239.7135,749.7457" style="stroke:#181818;stroke-width:1.8229166666666667;"/><line style="stroke:#181818;stroke-width:1.8229166666666667;" x1="236.0677" x2="633.4635" y1="749.7457" y2="749.7457"/><text fill="#000000" font-family="sans-serif" font-size="23.6979" font-weight="bold" lengthAdjust="spacing" textLength="16.4063" x="257.9427" y="740.5109">4</text><text fill="#000000" font-family="sans-serif" font-size="23.6979" lengthAdjust="spacing" textLength="182.2917" x="281.6406" y="740.5109">Send public key</text><line style="stroke:#000000;stroke-width:1.8229166666666667;stroke-dasharray:2.0,2.0;" x1="156.7708" x2="1244.1406" y1="766.1519" y2="766.1519"/><line style="stroke:#181818;stroke-width:1.8229166666666667;" x1="977.9948" x2="1054.5573" y1="806.4982" y2="806.4982"/><line style="stroke:#181818;stroke-width:1.8229166666666667;" x1="1054.5573" x2="1054.5573" y1="806.4982" y2="830.1961"/><line style="stroke:#181818;stroke-width:1.8229166666666667;" x1="979.8177" x2="1054.5573" y1="830.1961" y2="830.1961"/><polygon fill="#181818" points="998.0469,822.9045,979.8177,830.1961,998.0469,837.4878,990.7552,830.1961" style="stroke:#181818;stroke-width:1.8229166666666667;"/><text fill="#000000" font-family="sans-serif" font-size="23.6979" font-weight="bold" lengthAdjust="spacing" textLength="16.4063" x="990.7552" y="797.2635">5</text><text fill="#000000" font-family="sans-serif" font-size="23.6979" lengthAdjust="spacing" textLength="207.8125" x="1014.4531" y="797.2635">Generate key pair</text><polygon fill="#181818" points="247.0052,876.0111,228.776,883.3028,247.0052,890.5945,239.7135,883.3028" style="stroke:#181818;stroke-width:1.8229166666666667;"/><line style="stroke:#181818;stroke-width:1.8229166666666667;" x1="236.0677" x2="976.1719" y1="883.3028" y2="883.3028"/><text fill="#000000" font-family="sans-serif" font-size="23.6979" font-weight="bold" lengthAdjust="spacing" textLength="16.4063" x="257.9427" y="874.0681">6</text><text fill="#000000" font-family="sans-serif" font-size="23.6979" lengthAdjust="spacing" textLength="182.2917" x="281.6406" y="874.0681">Send public key</text><path d="M178.6458,919.7611 L178.6458,992.6778 L1024.4792,992.6778 L1024.4792,937.9903 L1006.25,919.7611 L178.6458,919.7611 " fill="#FEFFDD" style="stroke:#181818;stroke-width:0.9114583333333334;"/><path d="M1006.25,919.7611 L1006.25,937.9903 L1024.4792,937.9903 L1006.25,919.7611 " fill="#FEFFDD" style="stroke:#181818;stroke-width:0.9114583333333334;"/><text fill="#000000" font-family="sans-serif" font-size="23.6979" lengthAdjust="spacing" textLength="419.2708" x="384.1797" y="950.8727">So admin knows devices public keys</text><text fill="#000000" font-family="sans-serif" font-size="23.6979" lengthAdjust="spacing" textLength="413.8021" x="384.1797" y="978.4585">and devices know admin public key.</text><rect fill="#EEEEEE" height="5.4688" style="stroke:#EEEEEE;stroke-width:1.8229166666666667;" width="1593.2292" x="0" y="1039.7675"/><line style="stroke:#000000;stroke-width:1.8229166666666667;" x1="0" x2="1593.2292" y1="1039.7675" y2="1039.7675"/><line style="stroke:#000000;stroke-width:1.8229166666666667;" x1="0" x2="1593.2292" y1="1045.2362" y2="1045.2362"/><rect fill="#EEEEEE" height="42.1692" style="stroke:#000000;stroke-width:3.6458333333333335;" width="362.7604" x="615.2344" y="1020.5058"/><text fill="#000000" font-family="sans-serif" font-size="23.6979" font-weight="bold" lengthAdjust="spacing" textLength="328.125" x="626.1719" y="1049.7944">Broadcast CA certificate</text><line style="stroke:#181818;stroke-width:1.8229166666666667;" x1="226.9531" x2="303.5156" y1="1119.4275" y2="1119.4275"/><line style="stroke:#181818;stroke-width:1.8229166666666667;" x1="303.5156" x2="303.5156" y1="1119.4275" y2="1143.1254"/><line style="stroke:#181818;stroke-width:1.8229166666666667;" x1="228.776" x2="303.5156" y1="1143.1254" y2="1143.1254"/><polygon fill="#181818" points="247.0052,1135.8337,228.776,1143.1254,247.0052,1150.4171,239.7135,1143.1254" style="stroke:#181818;stroke-width:1.8229166666666667;"/><text fill="#000000" font-family="sans-serif" font-size="23.6979" font-weight="bold" lengthAdjust="spacing" textLength="16.4063" x="239.7135" y="1110.1927">7</text><text fill="#000000" font-family="sans-serif" font-size="23.6979" lengthAdjust="spacing" textLength="359.1146" x="263.4115" y="1110.1927">Generate new SSH CA key pair</text><polygon fill="#181818" points="1455.599,1188.9404,1473.8281,1196.2321,1455.599,1203.5238,1462.8906,1196.2321" style="stroke:#181818;stroke-width:1.8229166666666667;"/><line style="stroke:#181818;stroke-width:1.8229166666666667;" x1="226.9531" x2="1466.5365" y1="1196.2321" y2="1196.2321"/><text fill="#000000" font-family="sans-serif" font-size="23.6979" font-weight="bold" lengthAdjust="spacing" textLength="16.4063" x="239.7135" y="1186.9974">8</text><text fill="#000000" font-family="sans-serif" font-size="23.6979" lengthAdjust="spacing" textLength="331.7708" x="263.4115" y="1186.9974">Save new SSH CA public key</text><polygon fill="#181818" points="655.3385,1242.0471,637.1094,1249.3388,655.3385,1256.6305,648.0469,1249.3388" style="stroke:#181818;stroke-width:1.8229166666666667;"/><line style="stroke:#181818;stroke-width:1.8229166666666667;" x1="644.401" x2="1475.651" y1="1249.3388" y2="1249.3388"/><text fill="#000000" font-family="sans-serif" font-size="23.6979" font-weight="bold" lengthAdjust="spacing" textLength="16.4063" x="666.276" y="1240.104">9</text><text fill="#000000" font-family="sans-serif" font-size="23.6979" lengthAdjust="spacing" textLength="415.625" x="689.974" y="1240.104">Notify about new SSH CA public key</text><line style="stroke:#181818;stroke-width:1.8229166666666667;" x1="635.2865" x2="711.849" y1="1330.0313" y2="1330.0313"/><line style="stroke:#181818;stroke-width:1.8229166666666667;" x1="711.849" x2="711.849" y1="1330.0313" y2="1353.7292"/><line style="stroke:#181818;stroke-width:1.8229166666666667;" x1="637.1094" x2="711.849" y1="1353.7292" y2="1353.7292"/><polygon fill="#181818" points="655.3385,1346.4376,637.1094,1353.7292,655.3385,1361.0209,648.0469,1353.7292" style="stroke:#181818;stroke-width:1.8229166666666667;"/><text fill="#000000" font-family="sans-serif" font-size="23.6979" font-weight="bold" lengthAdjust="spacing" textLength="32.8125" x="648.0469" y="1307.0037">10</text><text fill="#000000" font-family="sans-serif" font-size="23.6979" lengthAdjust="spacing" textLength="215.1042" x="688.151" y="1293.2107">Apply new SSH CA</text><text fill="#000000" font-family="sans-serif" font-size="23.6979" lengthAdjust="spacing" textLength="207.8125" x="695.4427" y="1320.7966">with SSH daemon</text><polygon fill="#181818" points="998.0469,1399.5443,979.8177,1406.8359,998.0469,1414.1276,990.7552,1406.8359" style="stroke:#181818;stroke-width:1.8229166666666667;"/><line style="stroke:#181818;stroke-width:1.8229166666666667;" x1="987.1094" x2="1475.651" y1="1406.8359" y2="1406.8359"/><text fill="#000000" font-family="sans-serif" font-size="23.6979" font-weight="bold" lengthAdjust="spacing" textLength="32.8125" x="1008.9844" y="1397.6012">11</text><text fill="#000000" font-family="sans-serif" font-size="23.6979" lengthAdjust="spacing" textLength="415.625" x="1049.0885" y="1397.6012">Notify about new SSH CA public key</text><line style="stroke:#181818;stroke-width:1.8229166666666667;" x1="977.9948" x2="1054.5573" y1="1487.5285" y2="1487.5285"/><line style="stroke:#181818;stroke-width:1.8229166666666667;" x1="1054.5573" x2="1054.5573" y1="1487.5285" y2="1511.2264"/><line style="stroke:#181818;stroke-width:1.8229166666666667;" x1="979.8177" x2="1054.5573" y1="1511.2264" y2="1511.2264"/><polygon fill="#181818" points="998.0469,1503.9347,979.8177,1511.2264,998.0469,1518.5181,990.7552,1511.2264" style="stroke:#181818;stroke-width:1.8229166666666667;"/><text fill="#000000" font-family="sans-serif" font-size="23.6979" font-weight="bold" lengthAdjust="spacing" textLength="32.8125" x="990.7552" y="1464.5008">12</text><text fill="#000000" font-family="sans-serif" font-size="23.6979" lengthAdjust="spacing" textLength="215.1042" x="1030.8594" y="1450.7079">Apply new SSH CA</text><text fill="#000000" font-family="sans-serif" font-size="23.6979" lengthAdjust="spacing" textLength="207.8125" x="1038.151" y="1478.2937">with SSH daemon</text><rect fill="#EEEEEE" height="5.4688" style="stroke:#EEEEEE;stroke-width:1.8229166666666667;" width="1593.2292" x="0" y="1563.3006"/><line style="stroke:#000000;stroke-width:1.8229166666666667;" x1="0" x2="1593.2292" y1="1563.3006" y2="1563.3006"/><line style="stroke:#000000;stroke-width:1.8229166666666667;" x1="0" x2="1593.2292" y1="1568.7693" y2="1568.7693"/><rect fill="#EEEEEE" height="42.1692" style="stroke:#000000;stroke-width:3.6458333333333335;" width="503.125" x="545.0521" y="1544.0389"/><text fill="#000000" font-family="sans-serif" font-size="23.6979" font-weight="bold" lengthAdjust="spacing" textLength="468.4896" x="555.9896" y="1573.3275">Broadcast new SSH keys by admin</text><path d="M178.6458,1613.5518 L178.6458,1686.4685 L1024.4792,1686.4685 L1024.4792,1631.781 L1006.25,1613.5518 L178.6458,1613.5518 " fill="#FEFFDD" style="stroke:#181818;stroke-width:0.9114583333333334;"/><path d="M1006.25,1613.5518 L1006.25,1631.781 L1024.4792,1631.781 L1006.25,1613.5518 " fill="#FEFFDD" style="stroke:#181818;stroke-width:0.9114583333333334;"/><text fill="#000000" font-family="sans-serif" font-size="23.6979" lengthAdjust="spacing" textLength="519.5313" x="334.0495" y="1644.6634">In this group we have an example with client,</text><text fill="#000000" font-family="sans-serif" font-size="23.6979" lengthAdjust="spacing" textLength="452.0833" x="334.0495" y="1672.2492">but for server same steps should work.</text><path d="M178.6458,1705.1819 L178.6458,1750.7548 L1024.4792,1750.7548 L1024.4792,1723.4111 L1006.25,1705.1819 L178.6458,1705.1819 " fill="#FEFFDD" style="stroke:#181818;stroke-width:0.9114583333333334;"/><path d="M1006.25,1705.1819 L1006.25,1723.4111 L1024.4792,1723.4111 L1006.25,1705.1819 " fill="#FEFFDD" style="stroke:#181818;stroke-width:0.9114583333333334;"/><text fill="#000000" font-family="sans-serif" font-size="23.6979" lengthAdjust="spacing" textLength="645.3125" x="271.1589" y="1736.2934">Also before these steps admin should prepare CA keys.</text><line style="stroke:#181818;stroke-width:1.8229166666666667;" x1="226.9531" x2="303.5156" y1="1798.6348" y2="1798.6348"/><line style="stroke:#181818;stroke-width:1.8229166666666667;" x1="303.5156" x2="303.5156" y1="1798.6348" y2="1822.3328"/><line style="stroke:#181818;stroke-width:1.8229166666666667;" x1="228.776" x2="303.5156" y1="1822.3328" y2="1822.3328"/><polygon fill="#181818" points="247.0052,1815.0411,228.776,1822.3328,247.0052,1829.6244,239.7135,1822.3328" style="stroke:#181818;stroke-width:1.8229166666666667;"/><text fill="#000000" font-family="sans-serif" font-size="23.6979" font-weight="bold" lengthAdjust="spacing" textLength="32.8125" x="239.7135" y="1789.4001">13</text><text fill="#000000" font-family="sans-serif" font-size="23.6979" lengthAdjust="spacing" textLength="319.0104" x="279.8177" y="1789.4001">Generate new SSH key pair</text><line style="stroke:#181818;stroke-width:1.8229166666666667;" x1="226.9531" x2="303.5156" y1="1903.0253" y2="1903.0253"/><line style="stroke:#181818;stroke-width:1.8229166666666667;" x1="303.5156" x2="303.5156" y1="1903.0253" y2="1926.7232"/><line style="stroke:#181818;stroke-width:1.8229166666666667;" x1="228.776" x2="303.5156" y1="1926.7232" y2="1926.7232"/><polygon fill="#181818" points="247.0052,1919.4316,228.776,1926.7232,247.0052,1934.0149,239.7135,1926.7232" style="stroke:#181818;stroke-width:1.8229166666666667;"/><text fill="#000000" font-family="sans-serif" font-size="23.6979" font-weight="bold" lengthAdjust="spacing" textLength="32.8125" x="239.7135" y="1879.9976">14</text><text fill="#000000" font-family="sans-serif" font-size="23.6979" lengthAdjust="spacing" textLength="249.7396" x="279.8177" y="1866.2047">Sign newly generated</text><text fill="#000000" font-family="sans-serif" font-size="23.6979" lengthAdjust="spacing" textLength="282.5521" x="287.1094" y="1893.7906">public key using SSH CA</text><path d="M178.6458,1950.4211 L178.6458,2050.6816 L1024.4792,2050.6816 L1024.4792,1968.6503 L1006.25,1950.4211 L178.6458,1950.4211 " fill="#FEFFDD" style="stroke:#181818;stroke-width:0.9114583333333334;"/><path d="M1006.25,1950.4211 L1006.25,1968.6503 L1024.4792,1968.6503 L1006.25,1950.4211 " fill="#FEFFDD" style="stroke:#181818;stroke-width:0.9114583333333334;"/><text fill="#000000" font-family="sans-serif" font-size="23.6979" lengthAdjust="spacing" textLength="495.8333" x="220.1172" y="1981.5327">Admin knows client and server public keys.</text><text fill="#000000" font-family="sans-serif" font-size="23.6979" lengthAdjust="spacing" textLength="747.3958" x="220.1172" y="2009.1185">So admin can generate shared secret keys for client and server.</text><text fill="#000000" font-family="sans-serif" font-size="23.6979" lengthAdjust="spacing" textLength="411.9792" x="220.1172" y="2036.7044">Using Diffie-Hellman key exchange.</text><line style="stroke:#181818;stroke-width:1.8229166666666667;" x1="226.9531" x2="303.5156" y1="2126.6317" y2="2126.6317"/><line style="stroke:#181818;stroke-width:1.8229166666666667;" x1="303.5156" x2="303.5156" y1="2126.6317" y2="2150.3296"/><line style="stroke:#181818;stroke-width:1.8229166666666667;" x1="228.776" x2="303.5156" y1="2150.3296" y2="2150.3296"/><polygon fill="#181818" points="247.0052,2143.0379,228.776,2150.3296,247.0052,2157.6213,239.7135,2150.3296" style="stroke:#181818;stroke-width:1.8229166666666667;"/><text fill="#000000" font-family="sans-serif" font-size="23.6979" font-weight="bold" lengthAdjust="spacing" textLength="32.8125" x="239.7135" y="2103.604">15</text><text fill="#000000" font-family="sans-serif" font-size="23.6979" lengthAdjust="spacing" textLength="277.0833" x="279.8177" y="2089.8111">Generate shared secret</text><text fill="#000000" font-family="sans-serif" font-size="23.6979" lengthAdjust="spacing" textLength="253.3854" x="287.1094" y="2117.3969">using client public key</text><line style="stroke:#181818;stroke-width:1.8229166666666667;" x1="226.9531" x2="303.5156" y1="2231.0221" y2="2231.0221"/><line style="stroke:#181818;stroke-width:1.8229166666666667;" x1="303.5156" x2="303.5156" y1="2231.0221" y2="2254.7201"/><line style="stroke:#181818;stroke-width:1.8229166666666667;" x1="228.776" x2="303.5156" y1="2254.7201" y2="2254.7201"/><polygon fill="#181818" points="247.0052,2247.4284,228.776,2254.7201,247.0052,2262.0117,239.7135,2254.7201" style="stroke:#181818;stroke-width:1.8229166666666667;"/><text fill="#000000" font-family="sans-serif" font-size="23.6979" font-weight="bold" lengthAdjust="spacing" textLength="32.8125" x="239.7135" y="2207.9945">16</text><text fill="#000000" font-family="sans-serif" font-size="23.6979" lengthAdjust="spacing" textLength="255.2083" x="279.8177" y="2194.2015">Encrypt newly created</text><text fill="#000000" font-family="sans-serif" font-size="23.6979" lengthAdjust="spacing" textLength="149.4792" x="287.1094" y="2221.7874">SSH key pair</text><polygon fill="#181818" points="1271.4844,2300.5351,1289.7135,2307.8267,1271.4844,2315.1184,1278.776,2307.8267" style="stroke:#181818;stroke-width:1.8229166666666667;"/><line style="stroke:#181818;stroke-width:1.8229166666666667;" x1="226.9531" x2="1282.4219" y1="2307.8267" y2="2307.8267"/><text fill="#000000" font-family="sans-serif" font-size="23.6979" font-weight="bold" lengthAdjust="spacing" textLength="32.8125" x="239.7135" y="2298.592">17</text><text fill="#000000" font-family="sans-serif" font-size="23.6979" lengthAdjust="spacing" textLength="319.0104" x="279.8177" y="2298.592">Put encrypted SSH key pair</text><path d="M648.9583,2331.5247 L648.9583,2377.0976 L1283.3333,2377.0976 L1283.3333,2349.7538 L1265.1042,2331.5247 L648.9583,2331.5247 " fill="#FEFFDD" style="stroke:#181818;stroke-width:0.9114583333333334;"/><path d="M1265.1042,2331.5247 L1265.1042,2349.7538 L1283.3333,2349.7538 L1265.1042,2331.5247 " fill="#FEFFDD" style="stroke:#181818;stroke-width:0.9114583333333334;"/><text fill="#000000" font-family="sans-serif" font-size="23.6979" lengthAdjust="spacing" textLength="596.0938" x="659.8958" y="2362.6362">https://docs.ipfs.tech/concepts/content-addressing/</text><polygon fill="#181818" points="247.0052,2417.686,228.776,2424.9776,247.0052,2432.2693,239.7135,2424.9776" style="stroke:#181818;stroke-width:1.8229166666666667;"/><line style="stroke:#181818;stroke-width:1.8229166666666667;stroke-dasharray:2.0,2.0;" x1="236.0677" x2="1291.5365" y1="2424.9776" y2="2424.9776"/><text fill="#000000" font-family="sans-serif" font-size="23.6979" font-weight="bold" lengthAdjust="spacing" textLength="32.8125" x="257.9427" y="2415.7429">18</text><text fill="#000000" font-family="sans-serif" font-size="23.6979" lengthAdjust="spacing" textLength="269.7917" x="298.0469" y="2415.7429">Return unique data CID</text><line style="stroke:#181818;stroke-width:1.8229166666666667;" x1="226.9531" x2="303.5156" y1="2505.6702" y2="2505.6702"/><line style="stroke:#181818;stroke-width:1.8229166666666667;" x1="303.5156" x2="303.5156" y1="2505.6702" y2="2529.3681"/><line style="stroke:#181818;stroke-width:1.8229166666666667;" x1="228.776" x2="303.5156" y1="2529.3681" y2="2529.3681"/><polygon fill="#181818" points="247.0052,2522.0764,228.776,2529.3681,247.0052,2536.6597,239.7135,2529.3681" style="stroke:#181818;stroke-width:1.8229166666666667;"/><text fill="#000000" font-family="sans-serif" font-size="23.6979" font-weight="bold" lengthAdjust="spacing" textLength="32.8125" x="239.7135" y="2482.6425">19</text><text fill="#000000" font-family="sans-serif" font-size="23.6979" lengthAdjust="spacing" textLength="134.8958" x="279.8177" y="2468.8496">Encrypt CID</text><text fill="#000000" font-family="sans-serif" font-size="23.6979" lengthAdjust="spacing" textLength="229.6875" x="287.1094" y="2496.4354">using shared secret</text><polygon fill="#181818" points="1455.599,2575.1831,1473.8281,2582.4748,1455.599,2589.7664,1462.8906,2582.4748" style="stroke:#181818;stroke-width:1.8229166666666667;"/><line style="stroke:#181818;stroke-width:1.8229166666666667;" x1="226.9531" x2="1466.5365" y1="2582.4748" y2="2582.4748"/><text fill="#000000" font-family="sans-serif" font-size="23.6979" font-weight="bold" lengthAdjust="spacing" textLength="32.8125" x="239.7135" y="2573.24">20</text><text fill="#000000" font-family="sans-serif" font-size="23.6979" lengthAdjust="spacing" textLength="441.1458" x="279.8177" y="2573.24">Save to smart contract encrypted CID</text><polygon fill="#181818" points="655.3385,2628.2898,637.1094,2635.5815,655.3385,2642.8731,648.0469,2635.5815" style="stroke:#181818;stroke-width:1.8229166666666667;"/><line style="stroke:#181818;stroke-width:1.8229166666666667;" x1="644.401" x2="1475.651" y1="2635.5815" y2="2635.5815"/><text fill="#000000" font-family="sans-serif" font-size="23.6979" font-weight="bold" lengthAdjust="spacing" textLength="32.8125" x="666.276" y="2626.3467">21</text><text fill="#000000" font-family="sans-serif" font-size="23.6979" lengthAdjust="spacing" textLength="548.6979" x="706.3802" y="2626.3467">Notify client about new SSH key pair availability</text><line style="stroke:#181818;stroke-width:1.8229166666666667;" x1="635.2865" x2="711.849" y1="2716.274" y2="2716.274"/><line style="stroke:#181818;stroke-width:1.8229166666666667;" x1="711.849" x2="711.849" y1="2716.274" y2="2739.9719"/><line style="stroke:#181818;stroke-width:1.8229166666666667;" x1="637.1094" x2="711.849" y1="2739.9719" y2="2739.9719"/><polygon fill="#181818" points="655.3385,2732.6803,637.1094,2739.9719,655.3385,2747.2636,648.0469,2739.9719" style="stroke:#181818;stroke-width:1.8229166666666667;"/><text fill="#000000" font-family="sans-serif" font-size="23.6979" font-weight="bold" lengthAdjust="spacing" textLength="32.8125" x="648.0469" y="2693.2463">22</text><text fill="#000000" font-family="sans-serif" font-size="23.6979" lengthAdjust="spacing" textLength="277.0833" x="688.151" y="2679.4534">Generate shared secret</text><text fill="#000000" font-family="sans-serif" font-size="23.6979" lengthAdjust="spacing" textLength="264.3229" x="695.4427" y="2707.0393">using admin public key</text><line style="stroke:#181818;stroke-width:1.8229166666666667;" x1="635.2865" x2="711.849" y1="2793.0786" y2="2793.0786"/><line style="stroke:#181818;stroke-width:1.8229166666666667;" x1="711.849" x2="711.849" y1="2793.0786" y2="2816.7765"/><line style="stroke:#181818;stroke-width:1.8229166666666667;" x1="637.1094" x2="711.849" y1="2816.7765" y2="2816.7765"/><polygon fill="#181818" points="655.3385,2809.4849,637.1094,2816.7765,655.3385,2824.0682,648.0469,2816.7765" style="stroke:#181818;stroke-width:1.8229166666666667;"/><text fill="#000000" font-family="sans-serif" font-size="23.6979" font-weight="bold" lengthAdjust="spacing" textLength="32.8125" x="648.0469" y="2783.8439">23</text><text fill="#000000" font-family="sans-serif" font-size="23.6979" lengthAdjust="spacing" textLength="224.2188" x="688.151" y="2783.8439">Decrypt unique CID</text><polygon fill="#181818" points="1271.4844,2890.1774,1289.7135,2897.4691,1271.4844,2904.7607,1278.776,2897.4691" style="stroke:#181818;stroke-width:1.8229166666666667;"/><line style="stroke:#181818;stroke-width:1.8229166666666667;" x1="635.2865" x2="1282.4219" y1="2897.4691" y2="2897.4691"/><text fill="#000000" font-family="sans-serif" font-size="23.6979" font-weight="bold" lengthAdjust="spacing" textLength="32.8125" x="648.0469" y="2874.4414">24</text><text fill="#000000" font-family="sans-serif" font-size="23.6979" lengthAdjust="spacing" textLength="393.75" x="688.151" y="2860.6485">Download encrypted SSH key pair</text><text fill="#000000" font-family="sans-serif" font-size="23.6979" lengthAdjust="spacing" textLength="233.3333" x="695.4427" y="2888.2343">using decrypted CID</text><polygon fill="#181818" points="655.3385,2943.2841,637.1094,2950.5758,655.3385,2957.8674,648.0469,2950.5758" style="stroke:#181818;stroke-width:1.8229166666666667;"/><line style="stroke:#181818;stroke-width:1.8229166666666667;stroke-dasharray:2.0,2.0;" x1="644.401" x2="1291.5365" y1="2950.5758" y2="2950.5758"/><text fill="#000000" font-family="sans-serif" font-size="23.6979" font-weight="bold" lengthAdjust="spacing" textLength="32.8125" x="666.276" y="2941.341">25</text><text fill="#000000" font-family="sans-serif" font-size="23.6979" lengthAdjust="spacing" textLength="273.4375" x="706.3802" y="2941.341">Encrypted SSH key pair</text><line style="stroke:#181818;stroke-width:1.8229166666666667;" x1="635.2865" x2="711.849" y1="3003.6825" y2="3003.6825"/><line style="stroke:#181818;stroke-width:1.8229166666666667;" x1="711.849" x2="711.849" y1="3003.6825" y2="3027.3804"/><line style="stroke:#181818;stroke-width:1.8229166666666667;" x1="637.1094" x2="711.849" y1="3027.3804" y2="3027.3804"/><polygon fill="#181818" points="655.3385,3020.0887,637.1094,3027.3804,655.3385,3034.672,648.0469,3027.3804" style="stroke:#181818;stroke-width:1.8229166666666667;"/><text fill="#000000" font-family="sans-serif" font-size="23.6979" font-weight="bold" lengthAdjust="spacing" textLength="32.8125" x="648.0469" y="2994.4477">26</text><text fill="#000000" font-family="sans-serif" font-size="23.6979" lengthAdjust="spacing" textLength="247.9167" x="688.151" y="2994.4477">Decrypt SSH key pair</text><line style="stroke:#181818;stroke-width:1.8229166666666667;" x1="635.2865" x2="711.849" y1="3108.0729" y2="3108.0729"/><line style="stroke:#181818;stroke-width:1.8229166666666667;" x1="711.849" x2="711.849" y1="3108.0729" y2="3131.7708"/><line style="stroke:#181818;stroke-width:1.8229166666666667;" x1="637.1094" x2="711.849" y1="3131.7708" y2="3131.7708"/><polygon fill="#181818" points="655.3385,3124.4792,637.1094,3131.7708,655.3385,3139.0625,648.0469,3131.7708" style="stroke:#181818;stroke-width:1.8229166666666667;"/><text fill="#000000" font-family="sans-serif" font-size="23.6979" font-weight="bold" lengthAdjust="spacing" textLength="32.8125" x="648.0469" y="3085.0452">27</text><text fill="#000000" font-family="sans-serif" font-size="23.6979" lengthAdjust="spacing" textLength="273.4375" x="688.151" y="3071.2523">Apply new SSH key pair</text><text fill="#000000" font-family="sans-serif" font-size="23.6979" lengthAdjust="spacing" textLength="207.8125" x="695.4427" y="3098.8382">with SSH daemon</text><text fill="#000000" font-family="sans-serif" font-size="20.0521" lengthAdjust="spacing" textLength="205.9896" x="749.2188" y="3190.4878">Some time (ex: 1m)</text><polygon fill="#181818" points="1271.4844,3251.9694,1289.7135,3259.2611,1271.4844,3266.5527,1278.776,3259.2611" style="stroke:#181818;stroke-width:1.8229166666666667;"/><line style="stroke:#181818;stroke-width:1.8229166666666667;" x1="226.9531" x2="1282.4219" y1="3259.2611" y2="3259.2611"/><text fill="#000000" font-family="sans-serif" font-size="23.6979" font-weight="bold" lengthAdjust="spacing" textLength="32.8125" x="239.7135" y="3250.0263">28</text><text fill="#000000" font-family="sans-serif" font-size="23.6979" lengthAdjust="spacing" textLength="306.25" x="279.8177" y="3250.0263">Delete data and unpin CID</text><path d="M235.1563,3282.959 L235.1563,3328.5319 L740.1042,3328.5319 L740.1042,3301.1882 L721.875,3282.959 L235.1563,3282.959 " fill="#FEFFDD" style="stroke:#181818;stroke-width:0.9114583333333334;"/><path d="M721.875,3282.959 L721.875,3301.1882 L740.1042,3301.1882 L721.875,3282.959 " fill="#FEFFDD" style="stroke:#181818;stroke-width:0.9114583333333334;"/><text fill="#000000" font-family="sans-serif" font-size="23.6979" lengthAdjust="spacing" textLength="466.6667" x="246.0938" y="3314.0705">Encrypted key pair is no longer available</text><rect fill="#EEEEEE" height="5.4688" style="stroke:#EEEEEE;stroke-width:1.8229166666666667;" width="1593.2292" x="0" y="3375.3794"/><line style="stroke:#000000;stroke-width:1.8229166666666667;" x1="0" x2="1593.2292" y1="3375.3794" y2="3375.3794"/><line style="stroke:#000000;stroke-width:1.8229166666666667;" x1="0" x2="1593.2292" y1="3380.8482" y2="3380.8482"/><rect fill="#EEEEEE" height="42.1692" style="stroke:#000000;stroke-width:3.6458333333333335;" width="273.4375" x="659.8958" y="3356.1178"/><text fill="#000000" font-family="sans-serif" font-size="23.6979" font-weight="bold" lengthAdjust="spacing" textLength="238.8021" x="670.8333" y="3385.4064">SSH keys rotation</text><path d="M178.6458,3425.6307 L178.6458,3498.5474 L1024.4792,3498.5474 L1024.4792,3443.8599 L1006.25,3425.6307 L178.6458,3425.6307 " fill="#FEFFDD" style="stroke:#181818;stroke-width:0.9114583333333334;"/><path d="M1006.25,3425.6307 L1006.25,3443.8599 L1024.4792,3443.8599 L1006.25,3425.6307 " fill="#FEFFDD" style="stroke:#181818;stroke-width:0.9114583333333334;"/><text fill="#000000" font-family="sans-serif" font-size="23.6979" lengthAdjust="spacing" textLength="530.4688" x="328.5807" y="3456.7422">In this group we have an example with server,</text><text fill="#000000" font-family="sans-serif" font-size="23.6979" lengthAdjust="spacing" textLength="441.1458" x="328.5807" y="3484.3281">but for client same steps should work.</text><polygon fill="#181818" points="1455.599,3539.3778,1473.8281,3546.6695,1455.599,3553.9612,1462.8906,3546.6695" style="stroke:#181818;stroke-width:1.8229166666666667;"/><line style="stroke:#181818;stroke-width:1.8229166666666667;" x1="226.9531" x2="1466.5365" y1="3546.6695" y2="3546.6695"/><text fill="#000000" font-family="sans-serif" font-size="23.6979" font-weight="bold" lengthAdjust="spacing" textLength="32.8125" x="239.7135" y="3537.4348">29</text><text fill="#000000" font-family="sans-serif" font-size="23.6979" lengthAdjust="spacing" textLength="337.2396" x="279.8177" y="3537.4348">Revoke existing SSH key pair</text><polygon fill="#181818" points="998.0469,3592.4845,979.8177,3599.7762,998.0469,3607.0679,990.7552,3599.7762" style="stroke:#181818;stroke-width:1.8229166666666667;"/><line style="stroke:#181818;stroke-width:1.8229166666666667;" x1="987.1094" x2="1475.651" y1="3599.7762" y2="3599.7762"/><text fill="#000000" font-family="sans-serif" font-size="23.6979" font-weight="bold" lengthAdjust="spacing" textLength="32.8125" x="1008.9844" y="3590.5415">30</text><text fill="#000000" font-family="sans-serif" font-size="23.6979" lengthAdjust="spacing" textLength="271.6146" x="1049.0885" y="3590.5415">Notify about revokation</text><line style="stroke:#181818;stroke-width:1.8229166666666667;" x1="977.9948" x2="1054.5573" y1="3680.4688" y2="3680.4688"/><line style="stroke:#181818;stroke-width:1.8229166666666667;" x1="1054.5573" x2="1054.5573" y1="3680.4688" y2="3704.1667"/><line style="stroke:#181818;stroke-width:1.8229166666666667;" x1="979.8177" x2="1054.5573" y1="3704.1667" y2="3704.1667"/><polygon fill="#181818" points="998.0469,3696.875,979.8177,3704.1667,998.0469,3711.4583,990.7552,3704.1667" style="stroke:#181818;stroke-width:1.8229166666666667;"/><text fill="#000000" font-family="sans-serif" font-size="23.6979" font-weight="bold" lengthAdjust="spacing" textLength="32.8125" x="990.7552" y="3657.4411">31</text><text fill="#000000" font-family="sans-serif" font-size="23.6979" lengthAdjust="spacing" textLength="169.5313" x="1030.8594" y="3643.6481">Apply changes</text><text fill="#000000" font-family="sans-serif" font-size="23.6979" lengthAdjust="spacing" textLength="207.8125" x="1038.151" y="3671.234">with SSH daemon</text><rect fill="none" height="122.2066" style="stroke:#000000;stroke-width:2.734375;" width="413.8021" x="919.6615" y="3718.75"/><path d="M919.6615,3718.75 L1039.974,3718.75 L1039.974,3731.5104 L1021.7448,3749.7396 L919.6615,3749.7396 L919.6615,3718.75 " fill="#EEEEEE" style="stroke:#000000;stroke-width:3.6458333333333335;"/><text fill="#000000" font-family="sans-serif" font-size="23.6979" font-weight="bold" lengthAdjust="spacing" textLength="38.2813" x="943.3594" y="3744.3928">ref</text><text fill="#000000" font-family="sans-serif" font-size="21.875" lengthAdjust="spacing" textLength="399.2188" x="926.9531" y="3777.3361">To have new key pair on the server</text><text fill="#000000" font-family="sans-serif" font-size="21.875" lengthAdjust="spacing" textLength="380.9896" x="936.0677" y="3802.8">it is required to go through steps</text><text fill="#000000" font-family="sans-serif" font-size="21.875" lengthAdjust="spacing" textLength="253.3854" x="999.8698" y="3828.2639">from previous section.</text><!--SRC=[fLTBR-Cs4BxpLmpsqXROADX3KS102gJnjciKA8Br5dlP2osDBC8KgIKfE_xtdH6fboqd2nG84edp_hwPeU8FoZJIoHgAHi67ttuLiWtMjFKEdH0a2IfNZJG17ejQ6P0U93_CH4zQ8VqXMTuzpOHRT4TqBFJTqqouUVvpooBLb7ucUBUjwGsUh0bEvk5Tvpoz2F7mG6v3su2tPJX9X-03DXuU7eGmDY3OBYGd-ZwbzBL24qz06H-ardwqjYPb3j8KAKzGWPw2XzsP8vTgBnIzsPE1fjrfbSC1pnayQcy7LTybtUT9uGg7tcT2REqOB9S6WcjzW5XmgwMxigGqOhAJM0BfbCiJKNJtUyfw1PjO4goV_zuCaKQrMD4jDGPU08p0HQ_l4ry0NohbOOy6dGnOS2wKkYA4F1k1GzsTdrIeOBlzb979LmI3T4R810idwmvHl50doPK9sBrtEbtQMHTNXf_yB5vjcMmqz1FK4I5KX2R579JynF1KdVkq5L7iAzlg0dO8ZRCv4KFvSRVN9Cu9bZEdGzP9ZmfWC3HAYbFWKUN8lWSIeE-P2Gz_9P26T6PQNM4hQbroCVBAFhLdVwdn9eGj-HkrRlYZr-inI6HI8yQkE1XxygaiFx7sWZdfprdhjKRaIVp3MLdaalhvwH5of9Ok2KwApjCuj63ATIZ8uAdZZMo6siQsJlr1jJ7u4zr9cMBeeWa1_rWAJqJkR1jks5spzjWqHFwe_SqClGo5nDgQUR2UdHy8TatfZmIReTghCZcyZ29AIwikSRoX_T9DhBEq8ay85OD8Su8licuqndXfoCMESY-jwzlAoxhVfcaEU7YdbD-8sYt27POyeA52ttk9wIPVZSE6Ts1atK_TljafrstIzx_Q6zRIvt59VPisBBHUcNt2-tO1axculWqc4vADKyIxl8z9DL9fR90x394k1lRALoR-xV9Pgx9KUFS9jQx93oUABpajj3qkxVfBN6RXgDvOP8esdPDB3nzDxivDI92HTG9i6MI-cbVmJ5s2qOvYpZGxE3MM8QbM8JH-TNzVsDndV9G5pAjx6g0Sc-3v8L2AT-bsfAJl1Ql1tPZYPxhT7PLarFUMbgyC4fuswvkLa6m0O0QBkBbJwDQvk8l6yZZKAykb9tGsziCb9OzIQRbJMWNUKRUlY6N-BfVjWeSrngeJEbssWrBaO4sVAPeMo0tEXcW5JciUMEWZVLnc_9MSPdflRTf9EbShCCios5hQHK7Hhv_nPGKVwb-0ZiLbRwvHOqXTmbFMceR4N53Ncaxjgt3HCLTVCQ0jZTt0devNsx1sdGtn6-9_hzseFAxTXD7RQtUXaJ_ZqHwG_2iV-WKtWl_MXUNOkglgvYqLbv5VuiTX6J58rN-niLxcTe3MCYJOgz2t8C7Zy7khkF5f0lUMv0JNlegrYzBPcY-9ex8j_yEGSteT2k8_]--></g></svg>